<?xml version="1.0" encoding="UTF-8"?>
<!DOCTYPE svg PUBLIC "-//W3C//DTD SVG 1.1//EN" "http://www.w3.org/Graphics/SVG/1.1/DTD/svg11.dtd">
<svg xmlns="http://www.w3.org/2000/svg" version="1.1" width="1024px" height="1024px" style="shape-rendering:geometricPrecision; text-rendering:geometricPrecision; image-rendering:optimizeQuality; fill-rule:evenodd; clip-rule:evenodd" xmlns:xlink="http://www.w3.org/1999/xlink">
<g><path style="opacity:1" fill="#fefefe" d="M -0.5,-0.5 C 340.833,-0.5 682.167,-0.5 1023.5,-0.5C 1023.5,340.833 1023.5,682.167 1023.5,1023.5C 682.167,1023.5 340.833,1023.5 -0.5,1023.5C -0.5,682.167 -0.5,340.833 -0.5,-0.5 Z"/></g>
<g><path style="opacity:1" fill="#65def9" d="M 369.5,330.5 C 362.618,336.88 355.284,342.714 347.5,348C 344.567,350.264 342.4,353.098 341,356.5C 341.073,362.162 341.073,367.829 341,373.5C 337.333,379.167 333.667,384.833 330,390.5C 329.922,397.274 329.255,403.941 328,410.5C 328.684,434.824 329.017,459.157 329,483.5C 324.163,490.504 319.829,497.837 316,505.5C 312.5,509.667 309,513.833 305.5,518C 313.425,525.428 321.425,532.594 329.5,539.5C 330.123,541.711 331.123,543.711 332.5,545.5C 336.494,552.651 338.994,560.317 340,568.5C 340.767,579.72 340.267,590.887 338.5,602C 339.827,608.946 340.827,615.946 341.5,623C 340.891,629.93 339.724,636.763 338,643.5C 336.403,652.354 337.736,660.687 342,668.5C 344.667,671.833 347.333,675.167 350,678.5C 353.21,681.88 357.043,684.213 361.5,685.5C 369.409,686.114 372.409,690.447 370.5,698.5C 367.122,709.045 359.789,714.545 348.5,715C 342.843,715.499 337.176,715.666 331.5,715.5C 322.109,713.609 316.609,707.943 315,698.5C 299.31,687.121 292.31,671.788 294,652.5C 296.482,629.051 299.649,605.718 303.5,582.5C 302.938,575.056 300.938,568.056 297.5,561.5C 295.513,557.527 293.513,553.527 291.5,549.5C 286.61,546.226 281.61,543.226 276.5,540.5C 272.89,538.426 268.89,537.259 264.5,537C 258.562,535.395 255.062,531.562 254,525.5C 251.741,516.052 253.908,507.886 260.5,501C 267.219,500.237 271.719,496.737 274,490.5C 277.516,488.074 280.849,485.407 284,482.5C 296.241,462.79 298.907,441.79 292,419.5C 290.209,415.589 288.709,411.589 287.5,407.5C 289.119,400.636 289.952,393.636 290,386.5C 291.721,380.726 293.721,375.06 296,369.5C 297.052,363.883 297.718,358.216 298,352.5C 304.903,345.033 310.57,336.699 315,327.5C 317.167,325.333 319.333,323.167 321.5,321C 329.621,317.44 337.288,313.107 344.5,308C 348.362,307.355 352.196,307.521 356,308.5C 358.806,307.759 361.473,306.759 364,305.5C 367.982,306.752 370.648,309.419 372,313.5C 373.195,319.575 372.361,325.241 369.5,330.5 Z"/></g>
<g><path style="opacity:1" fill="#65dff9" d="M 715.5,329.5 C 726.253,340.339 730.753,353.339 729,368.5C 727.833,377.837 726.666,387.17 725.5,396.5C 726.283,403.864 727.283,411.197 728.5,418.5C 727.625,424.869 726.625,431.203 725.5,437.5C 726.449,450.076 730.283,461.743 737,472.5C 742.611,475.719 748.111,479.052 753.5,482.5C 756.943,484.061 760.61,484.894 764.5,485C 773.531,488.898 776.865,495.731 774.5,505.5C 774.36,516.141 769.027,522.308 758.5,524C 755.769,526.626 753.936,529.793 753,533.5C 748.859,534.635 745.525,536.969 743,540.5C 735.13,552.647 731.63,565.98 732.5,580.5C 733.909,599.525 733.742,618.525 732,637.5C 730.891,641.719 729.225,645.719 727,649.5C 727.057,656.679 726.057,663.679 724,670.5C 722.71,672.792 721.043,674.792 719,676.5C 716.194,683.25 713.194,689.917 710,696.5C 708.5,698 707,699.5 705.5,701C 697.079,704.96 689.079,709.46 681.5,714.5C 677.85,714.642 674.35,713.975 671,712.5C 662.354,718.214 657.354,715.881 656,705.5C 654.993,700.889 655.66,696.555 658,692.5C 664.918,685.578 672.418,679.411 680.5,674C 682.709,672.127 684.542,669.96 686,667.5C 687.212,660.913 687.879,654.246 688,647.5C 691.521,642.458 694.521,637.125 697,631.5C 697.688,622.152 697.521,612.819 696.5,603.5C 696.542,600.741 697.042,598.075 698,595.5C 698.063,576.124 698.73,556.79 700,537.5C 706.258,525.309 713.758,513.975 722.5,503.5C 715.151,496.317 707.651,489.317 700,482.5C 695.526,475.219 691.859,467.552 689,459.5C 686.928,445.972 687.094,432.472 689.5,419C 688.124,412.24 687.458,405.407 687.5,398.5C 687.923,388.385 689.256,378.385 691.5,368.5C 691.21,365.051 690.544,361.718 689.5,358.5C 686.857,353.868 683.857,349.535 680.5,345.5C 675.623,338.725 668.956,335.059 660.5,334.5C 657.128,329.846 656.628,324.846 659,319.5C 662.019,311.56 667.853,307.393 676.5,307C 683.899,306.152 691.233,306.485 698.5,308C 704.147,311.647 707.313,316.813 708,323.5C 710.086,326.094 712.586,328.094 715.5,329.5 Z"/></g>
<g><path style="opacity:1" fill="#64def9" d="M 629.5,351.5 C 629.666,355.514 629.499,359.514 629,363.5C 627.357,369.071 626.19,374.738 625.5,380.5C 627.553,388.267 629.886,395.934 632.5,403.5C 630.034,417.43 628.034,431.43 626.5,445.5C 627.342,454.875 628.508,464.208 630,473.5C 631.119,486.345 630.119,499.012 627,511.5C 613.788,545.314 608.788,580.314 612,616.5C 615.017,638.078 616.017,659.744 615,681.5C 614.302,689.271 611.469,696.104 606.5,702C 600.892,705.043 594.892,706.209 588.5,705.5C 577.366,704.214 569.866,698.214 566,687.5C 566.471,661.273 555.971,640.773 534.5,626C 527.711,617.925 522.878,608.758 520,598.5C 516.362,585.313 513.362,571.979 511,558.5C 508.829,550.148 505.996,542.148 502.5,534.5C 501.774,524.654 499.274,515.32 495,506.5C 489.131,501.812 484.464,502.812 481,509.5C 478.785,525.247 479.285,540.914 482.5,556.5C 480.623,568.935 478.123,581.268 475,593.5C 474.333,599.5 474.333,605.5 475,611.5C 480.43,629.731 479.096,647.397 471,664.5C 468.512,666.743 465.846,668.743 463,670.5C 458.012,681.128 454.012,692.128 451,703.5C 448.176,706.498 444.676,707.832 440.5,707.5C 431.258,707.467 424.425,703.467 420,695.5C 416.311,678.714 414.311,661.714 414,644.5C 410.607,640.381 408.274,635.714 407,630.5C 405.685,616.633 406.685,602.966 410,589.5C 411.746,570.509 410.079,551.843 405,533.5C 395.031,520.825 390.198,506.325 390.5,490C 391.751,471.538 393.751,453.205 396.5,435C 394.885,413.521 394.052,392.021 394,370.5C 401.465,349.833 416.298,339.667 438.5,340C 451.475,330.894 465.809,326.894 481.5,328C 492.531,331.535 499.197,339.035 501.5,350.5C 504.225,360.511 507.059,370.511 510,380.5C 515.115,386.284 519.448,392.618 523,399.5C 525.938,409.648 529.271,419.648 533,429.5C 538.018,434.162 541.352,433.162 543,426.5C 543.497,423.854 543.664,421.187 543.5,418.5C 544.332,392.003 544.832,365.336 545,338.5C 550.606,323.202 560.94,318.869 576,325.5C 581.126,324.408 586.293,324.241 591.5,325C 593.618,325.26 595.284,326.26 596.5,328C 607.4,327.189 616.9,330.355 625,337.5C 628.203,341.608 629.703,346.275 629.5,351.5 Z"/></g>
<g><path style="opacity:1" fill="#bbbbbb" d="M 329.5,539.5 C 321.425,532.594 313.425,525.428 305.5,518C 309,513.833 312.5,509.667 316,505.5C 319.829,497.837 324.163,490.504 329,483.5C 329.017,459.157 328.684,434.824 328,410.5C 329.255,403.941 329.922,397.274 330,390.5C 333.667,384.833 337.333,379.167 341,373.5C 341.073,367.829 341.073,362.162 341,356.5C 342.4,353.098 344.567,350.264 347.5,348C 355.284,342.714 362.618,336.88 369.5,330.5C 372.709,330.411 375.875,330.744 379,331.5C 381.032,331.142 382.866,330.308 384.5,329C 386.5,328.333 388.5,328.333 390.5,329C 397.98,339.58 396.98,349.247 387.5,358C 378.728,363.773 370.895,370.606 364,378.5C 363.802,384.179 363.802,389.845 364,395.5C 360.333,401.5 356.667,407.5 353,413.5C 352.917,419.942 352.251,426.275 351,432.5C 350.837,457.186 351.171,481.853 352,506.5C 347.082,514 342.416,521.667 338,529.5C 335.331,533 332.498,536.333 329.5,539.5 Z"/></g>
<g><path style="opacity:1" fill="#bbbbbb" d="M 715.5,329.5 C 724.999,331.167 730.165,336.834 731,346.5C 746.087,357.341 753.087,372.007 752,390.5C 750.143,400.233 748.976,410.066 748.5,420C 749.363,427.147 750.029,434.314 750.5,441.5C 746.947,455.541 747.947,469.208 753.5,482.5C 748.111,479.052 742.611,475.719 737,472.5C 730.283,461.743 726.449,450.076 725.5,437.5C 726.625,431.203 727.625,424.869 728.5,418.5C 727.283,411.197 726.283,403.864 725.5,396.5C 726.666,387.17 727.833,377.837 729,368.5C 730.753,353.339 726.253,340.339 715.5,329.5 Z"/></g>
<g><path style="opacity:1" fill="#bdc0c0" d="M 680.5,345.5 C 683.857,349.535 686.857,353.868 689.5,358.5C 686.348,359.041 683.848,358.041 682,355.5C 680.801,352.274 680.301,348.941 680.5,345.5 Z"/></g>
<g><path style="opacity:1" fill="#bbbbbc" d="M 501.5,350.5 C 508.906,351.119 514.739,354.452 519,360.5C 524.72,373.709 529.053,387.375 532,401.5C 535.689,407.339 539.522,413.006 543.5,418.5C 543.664,421.187 543.497,423.854 543,426.5C 541.352,433.162 538.018,434.162 533,429.5C 529.271,419.648 525.938,409.648 523,399.5C 519.448,392.618 515.115,386.284 510,380.5C 507.059,370.511 504.225,360.511 501.5,350.5 Z"/></g>
<g><path style="opacity:1" fill="#bbbbbb" d="M 629.5,351.5 C 649.017,355.164 656.517,366.831 652,386.5C 646.706,397.916 647.373,408.916 654,419.5C 654.935,421.909 655.435,424.409 655.5,427C 652.777,440.728 650.777,454.561 649.5,468.5C 649.725,475.242 650.558,481.909 652,488.5C 653.308,504.994 652.308,521.327 649,537.5C 632.618,581.06 628.951,625.727 638,671.5C 638.667,681.833 638.667,692.167 638,702.5C 636.731,724.217 625.565,732.383 604.5,727C 594.75,723.088 589.417,715.921 588.5,705.5C 594.892,706.209 600.892,705.043 606.5,702C 611.469,696.104 614.302,689.271 615,681.5C 616.017,659.744 615.017,638.078 612,616.5C 608.788,580.314 613.788,545.314 627,511.5C 630.119,499.012 631.119,486.345 630,473.5C 628.508,464.208 627.342,454.875 626.5,445.5C 628.034,431.43 630.034,417.43 632.5,403.5C 629.886,395.934 627.553,388.267 625.5,380.5C 626.19,374.738 627.357,369.071 629,363.5C 629.499,359.514 629.666,355.514 629.5,351.5 Z"/></g>
<g><path style="opacity:1" fill="#bbbbbb" d="M 502.5,534.5 C 501.493,543.144 501.327,551.811 502,560.5C 503.489,566.445 504.656,572.445 505.5,578.5C 504.207,590.421 501.707,602.088 498,613.5C 496.927,623.306 497.594,632.972 500,642.5C 501.364,655.712 500.364,668.712 497,681.5C 495.92,683.996 494.586,686.33 493,688.5C 490.667,690.167 488.333,691.833 486,693.5C 480.759,705.235 475.926,717.068 471.5,729C 453.32,732.971 442.987,725.805 440.5,707.5C 444.676,707.832 448.176,706.498 451,703.5C 454.012,692.128 458.012,681.128 463,670.5C 465.846,668.743 468.512,666.743 471,664.5C 479.096,647.397 480.43,629.731 475,611.5C 474.333,605.5 474.333,599.5 475,593.5C 478.123,581.268 480.623,568.935 482.5,556.5C 479.285,540.914 478.785,525.247 481,509.5C 484.464,502.812 489.131,501.812 495,506.5C 499.274,515.32 501.774,524.654 502.5,534.5 Z"/></g>
<g><path style="opacity:1" fill="#bbbbbb" d="M 774.5,505.5 C 795.608,506.48 802.775,517.146 796,537.5C 793.718,542.46 789.884,544.96 784.5,545C 779.664,546.819 776.831,550.319 776,555.5C 773.165,556.916 770.498,558.583 768,560.5C 758.961,572.813 754.461,586.647 754.5,602C 757.196,622.548 757.029,643.048 754,663.5C 752.667,666.167 751.333,668.833 750,671.5C 749.943,678.973 748.943,686.306 747,693.5C 744.667,696.5 742.333,699.5 740,702.5C 738.144,709.417 735.144,715.75 731,721.5C 723.083,726.208 715.25,731.041 707.5,736C 702.958,736.746 698.458,736.579 694,735.5C 690.692,737.385 687.192,738.219 683.5,738C 679.333,732.173 677.833,725.673 679,718.5C 679.662,717.016 680.496,715.683 681.5,714.5C 689.079,709.46 697.079,704.96 705.5,701C 707,699.5 708.5,698 710,696.5C 713.194,689.917 716.194,683.25 719,676.5C 721.043,674.792 722.71,672.792 724,670.5C 726.057,663.679 727.057,656.679 727,649.5C 729.225,645.719 730.891,641.719 732,637.5C 733.742,618.525 733.909,599.525 732.5,580.5C 731.63,565.98 735.13,552.647 743,540.5C 745.525,536.969 748.859,534.635 753,533.5C 753.936,529.793 755.769,526.626 758.5,524C 769.027,522.308 774.36,516.141 774.5,505.5 Z"/></g>
<g><path style="opacity:1" fill="#bbbcbc" d="M 276.5,540.5 C 281.61,543.226 286.61,546.226 291.5,549.5C 293.513,553.527 295.513,557.527 297.5,561.5C 292.274,560.776 287.274,559.276 282.5,557C 277.274,552.708 275.274,547.208 276.5,540.5 Z"/></g>
<g><path style="opacity:1" fill="#bbbbbb" d="M 332.5,545.5 C 338.911,550.132 345.078,555.132 351,560.5C 355.505,568.506 359.172,576.839 362,585.5C 362.738,598.847 362.571,612.18 361.5,625.5C 362.628,631.809 363.628,638.142 364.5,644.5C 363.153,654.556 361.486,664.556 359.5,674.5C 359.754,678.256 360.421,681.923 361.5,685.5C 357.043,684.213 353.21,681.88 350,678.5C 347.333,675.167 344.667,671.833 342,668.5C 337.736,660.687 336.403,652.354 338,643.5C 339.724,636.763 340.891,629.93 341.5,623C 340.827,615.946 339.827,608.946 338.5,602C 340.267,590.887 340.767,579.72 340,568.5C 338.994,560.317 336.494,552.651 332.5,545.5 Z"/></g>
<g><path style="opacity:1" fill="#bbbbbb" d="M 370.5,698.5 C 373.667,701.498 377,704.331 380.5,707C 392.86,707.714 396.693,713.881 392,725.5C 390.167,730 387,733.167 382.5,735C 370.88,738.977 359.213,739.31 347.5,736C 341.703,732.909 338.536,728.076 338,721.5C 335.665,719.6 333.498,717.6 331.5,715.5C 337.176,715.666 342.843,715.499 348.5,715C 359.789,714.545 367.122,709.045 370.5,698.5 Z"/></g>
</svg>
